<?xml version="1.0" encoding="utf-8"?>
<!DOCTYPE svg PUBLIC "-//W3C//DTD SVG 20010904//EN" "http://www.w3.org/TR/2001/REC-SVG-20010904/DTD/svg10.dtd">
<svg version="1.0" xmlns="http://www.w3.org/2000/svg" width="377px" height="345px" viewBox="0 0 377 345" preserveAspectRatio="xMidYMid meet">
 <g fill="#dbc8ba">
  <path d="M22.5 343.8 c-0.2 -0.7 -5.4 -20.2 -11.5 -43.2 l-11.1 -41.9 2.3 -6.5 c2.5 -7.1 4.8 -9.3 4.8 -4.5 0 1.5 -0.6 4.8 -1.4 7.3 -1.2 4 -1.1 5.3 0.5 11.5 1.1 3.9 3.7 13.5 5.8 21.5 2.1 8 5.6 20.8 7.6 28.5 2.1 7.7 4.2 15.9 4.8 18.3 0.6 2.3 1.5 4.2 2.1 4.2 1 0 63.5 -19.9 77.1 -24.5 2.8 -0.9 5.7 -2.3 6.5 -3 0.8 -0.7 12.4 -8.7 25.7 -17.9 21.5 -14.7 24.7 -16.6 28.3 -16.6 l4 0 0 4.3 c0 6.6 -2.9 29.7 -4 31.7 -0.6 1 -1 5.3 -1 9.4 l0 7.6 -4.5 0 c-6.5 0 -37.3 -7.9 -41.7 -10.7 -2.1 -1.3 -4.6 -2.3 -5.5 -2.3 -1.6 0 -85.7 26.6 -87.6 27.7 -0.4 0.2 -0.9 -0.2 -1.2 -0.9z"/>
  <path d="M329 335.4 c-12.4 -4 -31.1 -10.1 -41.7 -13.5 l-19.2 -6.2 -3.8 2.5 c-4.6 3.1 -33.4 11.8 -39.2 11.8 l-4.1 0 0.2 -14.7 c0.1 -8.9 -0.3 -17.6 -1.1 -21.8 -0.7 -3.8 -1.1 -9 -0.9 -11.5 0.3 -4.4 0.4 -4.5 3.9 -4.8 2.1 -0.2 4.2 0.3 5 1.1 0.8 0.7 5.9 4.8 11.4 9.1 5.5 4.2 10.9 8.4 11.9 9.3 1 0.8 6.2 4.8 11.5 8.8 l9.6 7.3 39.3 12.7 c21.6 7 39.5 12.5 39.6 12.4 0.1 -0.2 1.5 -5.3 3.1 -11.4 1.6 -6 3.2 -11.1 3.7 -11.3 0.4 -0.2 0.8 -1.4 0.8 -2.7 0 -3.6 2.2 -12.5 3.2 -12.5 0.4 0 0.8 -1.1 0.8 -2.4 0 -3.7 2.2 -12.6 3.2 -12.6 0.4 0 0.8 -1.1 0.8 -2.4 0 -3.4 2.2 -12.6 3 -12.6 0.4 0 1 -2.3 1.3 -5.2 0.4 -2.8 1.2 -5.5 1.9 -6 0.7 -0.4 0.8 -0.8 0.2 -0.8 -1.1 0 -5.4 -12.4 -5.4 -15.8 0 -1.2 -0.4 -2.2 -1 -2.2 -0.5 0 -1 -1.3 -1 -3 0 -1.6 -0.4 -3 -1 -3 -0.5 0 -1 -1.3 -1 -2.9 0 -1.6 -0.3 -3.1 -0.7 -3.3 -0.5 -0.1 -4.3 -10.9 -8.6 -23.8 -9 -27.5 -9.9 -33.6 -4.7 -34.6 2.4 -0.5 3 -1.2 3 -3.1 0 -1.6 0.7 -2.7 2 -3 1.1 -0.3 2 -1.2 2 -2.1 0 -0.8 0.7 -2.4 1.7 -3.4 1.5 -1.7 1.5 -1.8 0 -1.8 -1.2 0 -1.7 -0.9 -1.7 -3 0 -1.6 0.5 -3 1 -3 0.6 0 1 0.4 1 0.8 0 0.4 1.4 1.6 3 2.5 1.7 1 3 2.4 3 3 0 0.7 -1.9 3.5 -4.1 6.2 -2.3 2.8 -5.7 6.9 -7.6 9.2 l-3.4 4.2 13.4 41 13.5 41.1 -11.3 42.3 c-7.7 29 -11.7 42.3 -12.6 42.4 -0.8 0.1 -11.5 -3.2 -23.9 -7.3z"/>
  <path d="M18.3 204.5 c3.1 -9.2 5.7 -15.5 6.4 -15.5 0.7 0 1.3 1.2 1.3 2.7 0 3.4 -4.1 16.3 -5.2 16.3 -0.4 0 -0.8 1.4 -0.8 3 0 1.7 -0.4 3 -1 3 -0.5 0 -1 1.4 -1 3 0 2.5 -0.4 3 -2.4 3 l-2.4 0 5.1 -15.5z"/>
  <path d="M27 178.8 c0.9 -3 0.5 -3.7 -7.2 -13.1 l-8.1 -9.9 2.4 -1.9 c1.3 -1 2.7 -1.9 3.2 -1.9 1.4 0 0.7 -2.7 -1.3 -4.5 -2.9 -2.6 -2.5 -3.5 1.4 -3.5 3.7 0 4.6 1.2 4.6 6.2 0 2.9 -1.9 5.8 -3.9 5.8 -2.1 0 -1.1 1.5 1.9 2.8 1.7 0.8 3 1.9 3 2.6 0 0.7 0.9 2.1 2 3.1 1.1 1 2 2.3 2 3 0 0.6 1.1 1.8 2.5 2.5 1.8 1 2.5 2.1 2.5 4.4 0 5.4 -1 7.6 -3.5 7.6 -2.2 0 -2.3 -0.3 -1.5 -3.2z"/>
  <path d="M361 145.3 c0 -3.5 4.1 -7.9 6.4 -7 3.1 1.2 1.7 3.8 -4.6 8.6 -1.6 1.2 -1.8 1 -1.8 -1.6z"/>
  <path d="M358 133.5 c0 -2.3 0.5 -3.5 1.4 -3.5 0.8 0 1.7 -1.1 2 -2.5 0.4 -1.4 1.4 -2.5 2.4 -2.6 1.3 0 1.1 -0.3 -0.5 -0.9 -1.3 -0.5 -2.3 -1.7 -2.3 -2.7 -0.1 -1 1.8 -12.3 4.2 -25 3.7 -19.9 4.6 -23.3 6 -23.3 1 0 1.8 0.5 1.8 1.1 0 0.7 -1.9 10.9 -4.2 22.7 l-4.1 21.6 3.8 3.2 3.8 3.1 -5.2 3.9 c-4.7 3.5 -6.5 6.4 -4.1 6.4 0.6 0 1 0.5 1 1 0 0.6 -1.3 1 -3 1 -2.8 0 -3 -0.3 -3 -3.5z"/>
  <path d="M15 134 c1.2 -0.9 0.7 -1.7 -3 -5 -2.5 -2.2 -4.8 -4 -5.2 -4 -1.8 0 -0.6 -2.8 1.8 -4 1.4 -0.8 2.9 -2.1 3.4 -3 0.4 -0.9 -1.5 -13.8 -4.7 -31.5 l-5.4 -29.9 8.2 -23.1 c13.3 -37.4 11.5 -33.5 15 -32.3 10 3.5 115.4 48.7 115.7 49.6 0.2 0.8 -0.9 1.2 -3.2 1.2 -3.7 0 -8.6 -1.8 -8.6 -3.2 0 -0.4 -0.9 -0.8 -2.1 -0.8 -1.1 0 -6.7 -2 -12.3 -4.5 -5.7 -2.5 -10.9 -4.5 -11.5 -4.5 -0.6 0 -1.1 -0.4 -1.1 -1 0 -0.5 -0.7 -1 -1.5 -1 -2.1 0 -41.9 -17 -42.3 -18.1 -0.2 -0.5 -1.3 -0.9 -2.3 -0.9 -2.1 0 -23 -8.8 -23.9 -10 -0.9 -1.4 -6.6 -1.6 -7.8 -0.3 -0.7 0.6 -1.2 2.3 -1.2 3.7 0 1.3 -0.4 2.6 -1 2.8 -0.5 0.2 -1.5 2.7 -2.2 5.6 -0.7 2.8 -1.6 5.2 -2 5.2 -0.5 0 -0.8 1.4 -0.8 3 0 1.7 -0.4 3 -1 3 -0.5 0 -1 1.1 -1 2.5 0 1.4 -0.4 2.5 -1 2.5 -0.5 0 -1 1.4 -1 3 0 1.7 -0.4 3 -1 3 -0.5 0 -1 1.4 -1 3 0 1.7 -0.4 3 -1 3 -0.5 0 -1 0.8 -1 1.9 0 1 -0.6 3.6 -1.4 5.8 -1.3 3.7 -1.1 5.8 3.5 30.9 2.7 14.8 4.9 28.6 4.9 30.7 0 3.5 -0.2 3.7 -3 3.7 -1.6 0 -3 0.5 -3 1 0 0.6 0.9 1 1.9 1 1.1 0 2.3 0.9 2.6 2 0.3 1.1 1.5 2 2.6 2 1.6 0 1.9 0.7 1.9 4 0 3.7 -0.2 4 -2.7 4 -2.2 0 -2.5 -0.2 -1.3 -1z"/>
  <path d="M371.3 60.8 c0.1 -6.4 -0.2 -9.3 -1.1 -9.6 -0.7 -0.2 -1.2 -1.7 -1.2 -3.3 0 -1.6 -0.4 -2.9 -1 -2.9 -0.5 0 -1 -1.3 -1 -3 0 -1.6 -0.4 -3 -1 -3 -0.5 0 -1 -1.3 -1 -3 0 -1.6 -0.4 -3 -1 -3 -0.5 0 -1 -1.3 -1 -3 0 -1.6 -0.4 -3 -1 -3 -0.5 0 -1 -1.6 -1 -3.6 0 -7.2 2.6 -2.5 8.9 16.2 6.3 18.9 6.3 19 5.1 24.7 -0.7 3.4 -1.7 5.7 -2.5 5.7 -0.9 0 -1.2 -2.2 -1.2 -9.2z"/>
  <path d="M236 51.8 c0.1 -1.1 23.4 -10.7 74.6 -31 l4.4 -1.8 0 2.5 c0 2 -0.5 2.5 -2.5 2.5 -1.4 0 -2.5 0.5 -2.5 1 0 0.6 -1.1 1 -2.5 1 -1.4 0 -2.5 0.5 -2.5 1 0 0.6 -1.1 1 -2.5 1 -1.4 0 -2.5 0.5 -2.5 1 0 0.6 -1.1 1 -2.5 1 -1.4 0 -2.5 0.5 -2.5 1 0 0.6 -1.1 1 -2.5 1 -1.4 0 -2.5 0.5 -2.5 1 0 0.6 -0.9 1 -2 1 -1.1 0 -2 0.5 -2 1 0 0.6 -1.6 1 -3.5 1 -2.4 0 -3.5 0.5 -3.5 1.5 0 0.9 -0.9 1.5 -2.5 1.5 -1.4 0 -2.5 0.5 -2.5 1 0 0.6 -1.1 1 -2.5 1 -1.4 0 -2.5 0.5 -2.5 1 0 0.6 -1.1 1 -2.5 1 -1.4 0 -2.5 0.5 -2.5 1 0 0.6 -1.1 1 -2.5 1 -1.4 0 -2.5 0.5 -2.5 1 0 0.6 -1.1 1 -2.5 1 -1.4 0 -2.5 0.5 -2.5 1 0 0.6 -1.3 1 -3 1 -1.6 0 -3 0.5 -3 1 0 0.6 -1.1 1 -2.5 1 -1.4 0 -2.5 0.5 -2.5 1 0 0.6 -1.6 1 -3.5 1 -2.2 0 -3.5 -0.5 -3.5 -1.2z"/>
  <path d="M320.2 17.8 c0.5 -1.3 35.8 -15.9 36.9 -15.2 0.4 0.2 0.9 1.3 1.2 2.4 0.4 1.7 0 2 -2.4 2 -1.6 0 -2.9 0.5 -2.9 1 0 0.6 -1.1 1 -2.5 1 -1.4 0 -2.5 0.5 -2.5 1 0 0.6 -1.1 1 -2.5 1 -1.4 0 -2.5 0.5 -2.5 1 0 0.6 -1.1 1 -2.5 1 -1.4 0 -2.5 0.5 -2.5 1 0 0.6 -1.1 1 -2.5 1 -1.4 0 -2.5 0.5 -2.5 1 0 0.6 -1.3 1 -3 1 -1.6 0 -3 0.5 -3 1 0 0.6 -1.6 1 -3.6 1 -2.4 0 -3.4 -0.4 -3.2 -1.2z"/>
 </g>
 <g fill="#c7b5a8">
  <path d="M22.6 342.4 c-1.5 -3.9 -0.8 -4.6 3.9 -3.8 3 0.4 4.5 0.3 4.5 -0.5 0 -0.6 1.6 -1.1 3.5 -1.1 5.8 0 4.1 2.4 -3.3 4.8 -8.2 2.6 -7.8 2.6 -8.6 0.6z"/>
  <path d="M163.8 342.1 c-6.4 -1.9 -37.6 -16.2 -42.3 -19.4 -3.3 -2.3 -6.2 -4.3 -6.4 -4.4 -0.2 -0.2 -0.1 -0.6 0.2 -0.9 0.3 -0.4 9.9 1.6 21.1 4.5 11.3 2.8 21.2 5.1 22 5.1 1.1 0 1.5 -1.9 1.9 -8.2 0.2 -4.6 0.7 -9.3 1.2 -10.5 0.6 -1.8 0.4 -2.3 -1.1 -2.4 -1.6 0 -1.5 -0.2 0.4 -0.9 1.2 -0.5 2.2 -1.4 2.2 -2 0 -0.5 0.5 -1 1 -1 0.6 0 1 0.7 1 1.5 0 1.3 3.8 1.5 28 1.5 27.7 0 28 0 28 -2.1 0 -1.4 0.5 -1.9 1.8 -1.7 2.1 0.4 3.3 8.4 2.1 13.8 -1.3 5.3 -1.1 12 0.3 12 0.6 0 9.4 -2.5 19.4 -5.5 10.1 -3 18.8 -5.5 19.4 -5.5 5.2 0 -7.7 8.9 -26.5 18.3 l-15 7.5 -28.7 0.3 c-15.8 0.3 -29.3 0.2 -30 0z"/>
  <path d="M351.3 342.3 c-2.3 -0.9 -1.4 -3.3 1.2 -3.3 2.7 0 2.8 0.1 1.9 2.4 -0.6 1.7 -1.1 1.8 -3.1 0.9z"/>
  <path d="M44 335.4 c0 -2.1 0.5 -2.4 3.5 -2.4 2.2 0 3.5 0.5 3.5 1.3 0 0.8 -1.6 1.8 -3.5 2.4 -3.3 1.1 -3.5 1 -3.5 -1.3z"/>
  <path d="M324.3 333.7 c-7 -2.3 -8.4 -4.7 -2.8 -4.7 1.9 0 3.5 0.5 3.5 1 0 0.6 1.4 1 3 1 2.5 0 3 0.4 3 2.5 0 1.4 -0.1 2.5 -0.2 2.4 -0.2 0 -3.1 -1 -6.5 -2.2z"/>
  <path d="M17.7 324 c-2.1 -7.6 -2.1 -8 0.3 -8 1.6 0 2 0.7 2 3.5 0 1.9 0.5 3.5 1 3.5 0.6 0 1 1.6 1 3.5 0 5.7 -2.5 4.3 -4.3 -2.5z"/>
  <path d="M69 327 c0 -1.6 0.7 -2 3 -2 1.7 0 3 -0.4 3 -1 0 -0.5 1.4 -1 3 -1 1.7 0 3 -0.4 3 -1 0 -0.5 1.6 -1 3.5 -1 6.2 0 4 2.4 -4.8 5.3 -10 3.2 -10.7 3.3 -10.7 0.7z"/>
  <path d="M290.3 322.8 c-4.5 -1.5 -4.3 -3.8 0.2 -3.8 3.1 0 3.5 0.3 3.5 2.5 0 1.4 -0.1 2.5 -0.2 2.4 -0.2 -0.1 -1.8 -0.6 -3.5 -1.1z"/>
  <path d="M94 319 c0 -1.6 0.7 -2 3.5 -2 4 0 4.9 2.4 1.3 3.4 -3.8 1 -4.8 0.7 -4.8 -1.4z"/>
  <path d="M358 314.5 c0 -2.8 0.4 -3.5 2 -3.5 2.1 0 2.4 1 1.4 4.8 -1 3.6 -3.4 2.7 -3.4 -1.3z"/>
  <path d="M115 310.1 c0 -2.9 0.3 -3.1 3.6 -3.1 3.9 0 3.8 0.9 -0.6 4 l-3 2.1 0 -3z"/>
  <path d="M259.4 308.2 c-3.3 -2.6 -7.6 -5.9 -9.5 -7.4 -1.9 -1.5 -7.9 -6.2 -13.4 -10.4 -5.5 -4.3 -10.6 -8.4 -11.3 -9.1 -1.6 -1.5 -3.2 -0.9 -3.2 1.3 0 0.8 -0.7 1.4 -1.5 1.4 -1.1 0 -1.5 -1.1 -1.5 -4 0 -3.9 0.1 -4 3.5 -4 2.4 0 3.5 0.5 3.5 1.5 0 0.8 0.9 1.5 2 1.5 1.1 0 2 0.7 2 1.5 0 0.8 0.9 1.5 2 1.5 1 0 2.3 0.6 2.7 1.3 0.4 0.8 1.6 1.6 2.6 2 0.9 0.3 1.7 1.6 1.7 2.7 0 1.5 0.7 2 2.5 2 1.6 0 2.5 0.6 2.5 1.5 0 0.8 0.9 1.5 2 1.5 1.3 0 2 0.7 2 2 0 1.5 0.7 2 2.5 2 1.6 0 2.5 0.6 2.5 1.5 0 0.8 0.9 1.5 2 1.5 1.3 0 2 0.7 2 2 0 1.5 0.7 2 2.5 2 1.6 0 2.5 0.6 2.5 1.5 0 0.8 0.9 1.5 2 1.5 1.6 0 2 0.7 2 3 0 1.7 -0.1 3 -0.2 3 -0.2 0 -3 -2.2 -6.4 -4.8z"/>
  <path d="M12.6 305.8 c-1 -3.8 -0.7 -4.8 1.4 -4.8 1.6 0 2 0.7 2 3.5 0 4 -2.4 4.9 -3.4 1.3z"/>
  <path d="M362 299.5 c0 -2.8 0.4 -3.5 2 -3.5 2.1 0 2.4 1 1.4 4.8 -1 3.6 -3.4 2.7 -3.4 -1.3z"/>
  <path d="M131 299 c0 -2.8 0.3 -3 3.5 -3 4.4 0 4.4 0.9 0 3.8 l-3.5 2.2 0 -3z"/>
  <path d="M163 299.6 c0 -0.8 -0.8 -1.7 -1.7 -1.9 -1.7 -0.4 -1.7 -0.5 0 -0.6 0.9 0 1.7 -0.4 1.8 -0.8 0 -0.5 0.3 -2 0.5 -3.5 0.3 -1.9 0 -2.8 -1.3 -3.1 -1.6 -0.4 -1.6 -0.5 -0.1 -0.6 1 -0.1 1.9 -1.3 2.3 -3.1 0.4 -1.8 1.3 -3 2.2 -3 1.4 0 1.5 1.1 0.9 7.5 -0.4 4.2 -0.9 8.2 -1.3 9 -0.7 1.9 -3.3 1.9 -3.3 0.1z"/>
  <path d="M10.6 297.8 c-1 -3.8 -0.7 -4.8 1.4 -4.8 1.6 0 2 0.7 2 3.5 0 4 -2.4 4.9 -3.4 1.3z"/>
  <path d="M144 290 c0 -2 0.5 -3 1.5 -3 0.8 0 1.5 -0.4 1.5 -1 0 -0.5 0.7 -1 1.5 -1 0.8 0 1.5 -0.4 1.5 -1 0 -0.5 1.6 -1 3.6 -1 4.4 0 3.9 0.9 -3.7 6 l-5.9 4.1 0 -3.1z"/>
  <path d="M366 284.5 c0 -2.8 0.4 -3.5 2 -3.5 2.1 0 2.4 1 1.4 4.8 -1 3.6 -3.4 2.7 -3.4 -1.3z"/>
  <path d="M5 277.3 c0 -0.5 -1.1 -4.6 -2.3 -9.3 -2.4 -9 -2.4 -12 -0.1 -12 0.9 0 1.4 1.1 1.4 3.5 0 1.9 0.5 3.5 1 3.5 0.6 0 1 1.8 1 4 0 2.2 0.5 4 1 4 0.6 0 1 1.6 1 3.5 0 2.4 -0.5 3.5 -1.5 3.5 -0.8 0 -1.5 -0.3 -1.5 -0.7z"/>
  <path d="M370 269.5 c0 -2.8 0.4 -3.5 2 -3.5 2.1 0 2.4 1 1.4 4.8 -1 3.6 -3.4 2.7 -3.4 -1.3z"/>
  <path d="M372 258.5 c0 -5 0.3 -6.5 1.5 -6.5 1.8 0 2.9 5.7 2 9.9 -0.4 1.7 -1.3 3.1 -2.1 3.1 -1.1 0 -1.4 -1.6 -1.4 -6.5z"/>
  <path d="M346 176.3 c0 -3.1 1.1 -5.2 6 -11.3 5.3 -6.6 5.8 -7.6 4.5 -9 -0.8 -0.9 -1.5 -3.3 -1.5 -5.3 0 -3 0.7 -4.3 3.7 -7.1 3.6 -3.3 3.6 -3.3 1.5 -4.5 -1.8 -0.9 -2.2 -2.1 -2.2 -5.6 0 -3.7 0.5 -4.7 3.1 -6.8 2.9 -2.2 3 -2.5 1.4 -4.1 -2.4 -2.3 -1.8 -7.4 4 -37.9 l4.9 -25.8 -8.5 -25.7 c-7.5 -22.4 -8.8 -25.7 -10.7 -26 -4.1 -0.6 -2.2 -3.2 2.7 -3.8 2.6 -0.3 2.8 0 11.9 27.5 l9.2 27.7 -1.9 10 c-6.7 33.8 -9.8 51.1 -9.1 51 0.3 -0.1 2 1 3.8 2.2 l3.3 2.4 -2.8 2.1 c-1.5 1.2 -3 2.1 -3.3 2.1 -0.3 -0.1 -1.5 1.1 -2.7 2.6 l-2.3 2.8 4 2.7 c2.2 1.5 4 3 4 3.4 0 0.3 -2.3 2.9 -5.2 5.8 l-5.2 5.3 3.4 2.8 3.3 2.9 -6.7 8.1 c-3.7 4.5 -7.1 8.2 -7.6 8.2 -0.4 0 -0.7 1.6 -0.6 3.5 0.1 3 -0.2 3.5 -2.1 3.5 -2 0 -2.3 -0.5 -2.3 -3.7z"/>
  <path d="M28.4 176.1 c0.3 -0.4 -1.7 -3.2 -4.4 -6.2 -2.7 -2.9 -4.8 -5.5 -4.6 -5.6 0.1 -0.2 -1.5 -2.2 -3.6 -4.4 l-3.9 -4.1 3.6 -2.5 c2.4 -1.6 3.4 -3 3.1 -4 -0.3 -0.8 -0.6 -1.7 -0.6 -1.9 0 -0.3 -0.4 -0.3 -0.8 0 -0.5 0.3 -2.8 -1.4 -5.1 -3.8 l-4.3 -4.3 4.1 -2.9 c2.2 -1.6 4.1 -3.7 4.1 -4.7 0 -1 -0.4 -1.6 -0.9 -1.2 -0.5 0.3 -1.9 -0.7 -3 -2.1 -1.2 -1.5 -2.1 -2.3 -2.1 -1.9 0 0.5 -0.9 0 -2.1 -1.1 l-2.1 -1.9 3.6 -3 3.7 -3.1 -5.5 -30.4 c-3.1 -16.8 -5.1 -30.6 -4.6 -30.8 0.5 -0.2 0.6 -1 0.3 -1.8 -0.3 -0.8 0 -1.4 0.6 -1.4 0.6 0 0.8 -0.7 0.5 -1.5 -0.4 -0.8 -0.1 -1.5 0.5 -1.5 0.6 0 0.8 -0.6 0.5 -1.4 -0.3 -0.7 0.1 -2 0.8 -2.7 0.7 -0.8 1.4 -2.5 1.6 -3.9 0.1 -1.3 0.6 -2.7 1 -3 0.4 -0.3 0.8 -1.6 1 -3 0.1 -1.3 0.6 -2.7 1 -3 0.4 -0.3 0.9 -1.4 1 -2.5 0.2 -1.1 0.7 -2.2 1 -2.5 0.4 -0.3 0.8 -1.6 1 -3 0.1 -1.3 0.6 -2.7 1 -3 0.4 -0.3 0.7 -0.9 0.7 -1.5 0.1 -1.9 2.8 -9.5 3.4 -9.5 0.3 0 0.7 -1.2 0.8 -2.6 0 -1.5 0.6 -3 1.3 -3.4 0.6 -0.4 1.1 -1 1.1 -1.4 -0.4 -3.1 -0.1 -3.4 2.9 -2.3 3.1 1.2 4.2 3.7 1.6 3.7 -0.9 0 -2.2 2.5 -3.4 6.3 -2.4 7.3 -7 20.4 -8.2 23.2 -1.4 3.2 -6.2 16.7 -7.3 20.6 -0.8 2.9 -0.2 8.1 3.6 29.6 4.7 26.1 5.7 36.6 3.6 37.9 -0.8 0.4 -0.1 1.6 2 3.4 2.5 2.2 3.1 3.5 3.1 6.8 0 2.8 -0.6 4.3 -2 5.3 -2 1.4 -2 1.5 1 4.6 2.4 2.6 3 4.1 3 7.7 0 2.9 -0.5 4.8 -1.5 5.3 -1.1 0.7 -0.1 2.3 4.5 7.8 4.6 5.4 6 7.7 6 10.3 0 2.2 -0.5 3.2 -1.6 3.2 -0.8 0 -1.3 -0.4 -1 -0.9z"/>
  <path d="M135 50.6 c0 -2.3 0.2 -2.3 4 -1.4 2.2 0.6 4 1.6 4 2.4 0 1 -1.3 1.4 -4 1.4 -3.6 0 -4 -0.3 -4 -2.4z"/>
  <path d="M237 51.7 c0 -0.7 2.3 -2.2 5.2 -3.3 2.9 -1 5.6 -2 6 -2.2 0.4 -0.2 0.8 0.8 0.8 2.2 0 2.1 -0.5 2.6 -2.5 2.6 -1.4 0 -2.5 0.5 -2.5 1 0 0.6 -1.6 1 -3.5 1 -2.2 0 -3.5 -0.5 -3.5 -1.3z"/>
  <path d="M126 46.5 c0 -2.4 0.1 -2.5 3.2 -1.2 4.6 1.9 4.8 3.7 0.4 3.7 -3.2 0 -3.6 -0.3 -3.6 -2.5z"/>
  <path d="M107 38.5 c0 -2.4 0.1 -2.5 3.2 -1.2 4.6 1.9 4.8 3.7 0.4 3.7 -3.2 0 -3.6 -0.3 -3.6 -2.5z"/>
  <path d="M276 36 c0 -0.6 1.2 -1.5 2.8 -2.2 1.5 -0.6 4.1 -1.6 5.7 -2.3 2.5 -1.1 38.2 -15.6 42.3 -17.2 0.8 -0.3 1.2 0.4 1.2 2.1 0 2.1 -0.5 2.6 -2.5 2.6 -1.4 0 -2.5 0.5 -2.5 1 0 0.6 -1.1 1 -2.5 1 -1.4 0 -2.5 0.5 -2.5 1 0 0.6 -1.1 1 -2.5 1 -1.4 0 -2.5 0.5 -2.5 1 0 0.6 -1.1 1 -2.5 1 -1.4 0 -2.5 0.5 -2.5 1 0 0.6 -1.1 1 -2.5 1 -1.4 0 -2.5 0.5 -2.5 1 0 0.6 -1.1 1 -2.5 1 -1.4 0 -2.5 0.5 -2.5 1 0 0.6 -1.1 1 -2.5 1 -1.4 0 -2.5 0.5 -2.5 1 0 0.6 -0.9 1 -2 1 -1.1 0 -2 0.5 -2 1 0 0.6 -1.1 1 -2.5 1 -1.4 0 -2.5 0.5 -2.5 1 0 0.6 -1.8 1 -4 1 -2.2 0 -4 -0.5 -4 -1z"/>
  <path d="M55 16.5 c0 -2.4 0.1 -2.5 3.2 -1.2 4.6 1.9 4.8 3.7 0.4 3.7 -3.2 0 -3.6 -0.3 -3.6 -2.5z"/>
  <path d="M36 8.5 c0 -2.4 0.1 -2.5 3.2 -1.2 4.6 1.9 4.8 3.7 0.4 3.7 -3.2 0 -3.6 -0.3 -3.6 -2.5z"/>
 </g>
 <g fill="#ee922b">
  <path d="M23 343.1 c0 -0.5 -0.3 -1.6 -0.6 -2.5 -0.4 -1.2 0 -1.6 1.5 -1.6 1.2 0 2.1 -0.4 2.1 -1 0 -0.5 2.1 -1 4.6 -1 6.3 0 5.7 2.7 -1.1 5.2 -5.7 2 -6.5 2.2 -6.5 0.9z"/>
  <path d="M343.3 339.7 c-4.6 -1.5 -6.3 -2.6 -6.3 -3.9 0 -2.1 3.3 -2.4 9.1 -0.6 3.3 0.9 3.9 1.5 3.9 4 0 1.5 -0.1 2.8 -0.2 2.7 -0.2 0 -3.1 -1 -6.5 -2.2z"/>
  <path d="M39 336.1 c0 -2.8 0.3 -3.1 3 -3.1 1.7 0 3 -0.4 3 -0.8 0 -1.2 10.1 -4.2 14.3 -4.2 2.9 0 3.7 0.4 3.7 1.8 0 1.4 -2.3 2.5 -10.7 5.2 -6 1.8 -11.4 3.5 -12 3.8 -0.9 0.3 -1.3 -0.6 -1.3 -2.7z"/>
  <path d="M321.8 332.7 c-3.9 -1.5 -3.8 -4.7 0.1 -4.7 4.5 0 6.1 1 6.1 3.6 0 2.7 -1.6 2.9 -6.2 1.1z"/>
  <path d="M70 326.1 c0 -2.8 0.3 -3.1 3 -3.1 1.7 0 3 -0.4 3 -1 0 -0.5 1.3 -1 2.9 -1 1.6 0 3.1 -0.5 3.3 -1.2 0.2 -0.6 3 -1.3 6.1 -1.6 5.1 -0.4 5.7 -0.2 5.7 1.5 0 1.5 -2 2.5 -10.7 5.2 -6 1.9 -11.4 3.6 -12 3.9 -0.9 0.3 -1.3 -0.6 -1.3 -2.7z"/>
  <path d="M306.3 327.8 c-4.7 -1.6 -4.6 -4.8 0.2 -4.8 3.2 0 3.5 0.2 3.5 3 0 1.7 -0.1 3 -0.2 2.9 -0.2 -0.1 -1.8 -0.6 -3.5 -1.1z"/>
  <path d="M287.3 321.7 c-4.7 -1.5 -6.3 -2.5 -6.3 -3.9 0 -1.4 0.8 -1.8 4 -1.8 2.2 0 4 0.5 4 1 0 0.6 1.2 1 2.6 1 2.9 0 5.4 2.1 5.4 4.4 0 2 -1.9 1.9 -9.7 -0.7z"/>
  <path d="M95 318 c0 -2.5 0.5 -3 3.8 -3.9 2 -0.6 4.9 -1.1 6.5 -1.1 1.6 0 2.7 -0.5 2.7 -1.4 0 -0.7 9.8 -8 21.8 -16.2 11.9 -8.1 22.7 -15.5 24 -16.5 2.2 -1.7 2.2 -1.7 -7.5 -7.2 -5.4 -3 -12.9 -7.1 -16.8 -9.2 -3.8 -2.1 -8.8 -4.9 -11 -6.3 -3.9 -2.5 -4 -2.5 -22 -1.9 -15.3 0.5 -31.9 1.7 -87.9 6.3 l-7.9 0.6 0.6 -3.9 c0.4 -2.2 3.4 -12.1 6.7 -21.9 3.4 -9.8 8.7 -25.8 12 -35.4 3.2 -9.6 6.6 -19.2 7.5 -21.3 1.2 -3 1.3 -4.2 0.4 -5.3 -0.9 -1.1 -0.8 -1.4 0.5 -1.4 0.9 0 8.8 -2.1 17.4 -4.6 8.6 -2.5 17.1 -4.9 18.7 -5.4 1.7 -0.4 7.3 -2 12.5 -3.4 5.2 -1.4 12.7 -3.5 16.5 -4.7 3.9 -1.2 8.7 -2.4 10.8 -2.6 3.6 -0.5 3.7 -0.4 3.7 2.6 0 1.8 -0.4 3.7 -1 4.4 -2.4 3 -8.6 11.5 -10.9 15.2 -1.4 2.2 -3.9 5.7 -5.5 7.8 l-2.9 3.8 2.5 4.7 c1.4 2.6 7.4 14.2 13.4 25.7 l10.9 21 0.3 -9.7 0.3 -9.8 4.7 0 c2.6 0 12.4 2 21.7 4.5 9.4 2.5 17.9 4.5 19.1 4.5 1.7 0 2.4 1.3 4.3 9 1.3 5 2.6 9 2.9 9 0.6 0 -0.6 -27.4 -1.8 -38 -0.9 -8.3 -1.4 -14.5 -4.6 -59 -2.8 -39.1 -2.9 -40.1 -5.6 -46 -1.4 -3 -4.2 -9.8 -6.2 -15 -2.1 -5.2 -5 -12.4 -6.6 -16 -4 -9 -7 -17.2 -7 -19 0 -1.3 6.3 -1.5 51.7 -1.2 28.4 0.1 51.9 0.5 52.2 0.8 0.7 0.7 -1 5.9 -6.9 21.4 -8 21 -12 32.7 -12 35 0 1.1 -0.4 2 -0.8 2 -0.5 0 -1.2 7.3 -1.6 16.2 -1.6 37.3 -2.7 59.1 -3.5 72.3 -0.6 7.7 -0.7 20.8 -0.4 29 0.7 14.6 0.7 14.8 1.8 9.4 1.8 -8.6 1.7 -8.5 10.7 -10.9 4.6 -1.2 13.7 -3.7 20.3 -5.6 6.6 -1.9 13.2 -3.4 14.7 -3.4 l2.7 0 0.3 10 0.3 10.1 12.5 -24.8 c6.9 -13.6 12.6 -25.1 12.8 -25.4 0.1 -0.3 -4.3 -6.3 -9.8 -13.3 -8.8 -11.2 -10 -13.3 -10 -16.7 0 -3.7 0.1 -3.9 3.3 -3.9 1.8 0 10.2 2 18.7 4.6 17.3 5 18.4 5.4 29 8.3 4.1 1.2 10.7 3 14.5 4.2 3.9 1.1 8.4 2.3 10.2 2.6 2.7 0.4 3.2 0.9 3.1 3.2 0 1.4 5.6 19.7 12.6 40.6 7 20.9 12.9 39.7 13.3 41.9 l0.6 3.9 -3.9 -0.6 c-2.1 -0.4 -12.9 -1.4 -23.9 -2.2 -11 -0.9 -25.4 -2 -32 -2.6 -6.6 -0.6 -20.8 -1.3 -31.7 -1.5 l-19.6 -0.5 -4.4 2.9 c-11.2 7.5 -30 19.2 -30.9 19.2 -0.6 0 -0.9 0.4 -0.7 1 0.6 1.9 44.1 35 45.9 35 1.4 0 1.9 0.7 1.9 3.1 0 3.2 -0.4 3.3 -6.5 0.8 -1.8 -0.7 -15.9 -11.5 -39.5 -30.1 -8.1 -6.4 -8.5 -6.7 -8.8 -4.3 l-0.3 2.4 -4.8 -3.4 -4.8 -3.5 -18.4 0 c-17.3 0 -18.5 0.1 -21.6 2.3 -1.8 1.2 -3.3 2.5 -3.3 3 0 0.4 -0.9 0.7 -2 0.7 -1.1 0 -2 -0.7 -2 -1.5 0 -2.6 -1.9 -1.7 -13.4 6.2 -6.1 4.2 -16 11 -22.1 15.2 -6 4.1 -12.6 8.7 -14.5 10.2 -2.8 2.1 -17 7.9 -19.5 7.9 -0.3 0 -0.5 -1.3 -0.5 -3z"/>
 </g>
 <g fill="#e6811d">
  <path d="M24.3 342 c-1.3 -0.5 -2.3 -1.2 -2.3 -1.6 0 -0.5 -1.5 -6.4 -7 -26.9 -1 -3.8 -3.1 -11.5 -4.5 -17 -1.5 -5.5 -3.6 -13.1 -4.6 -17 -4.8 -17.7 -5.3 -20.6 -4 -21.4 0.7 -0.5 4.9 -0.9 9.4 -1 4.4 -0.1 8.3 -0.3 8.6 -0.5 0.3 -0.2 4.9 -0.7 10.1 -1 5.2 -0.4 17.8 -1.4 28 -2.2 10.2 -0.9 27.7 -1.9 39 -2.2 l20.5 -0.7 4 2.6 c2.2 1.5 7.9 4.8 12.6 7.3 18.3 9.8 27.4 15.3 27.6 16.7 0.2 0.9 -9.3 8 -25.1 18.7 -17.6 12 -25.3 17.8 -24.9 18.8 0.5 1.4 -1.1 1.9 -5.4 1.5 -1.3 -0.1 -2.3 0.2 -2.3 0.8 0 0.5 -0.8 0.7 -1.9 0.4 -1.1 -0.3 -2.7 0.4 -3.9 1.7 -1.6 1.7 -3.4 2.3 -7.3 2.5 -3.6 0.2 -5.5 0.8 -6.1 1.9 -0.6 1.1 -1.7 1.4 -3.2 1 -1.6 -0.4 -2.5 0 -3 1.1 -0.4 1.1 -1.2 1.4 -2.7 1 -1.3 -0.4 -2.5 -0.1 -3.2 0.8 -1.5 1.8 -11.3 5.1 -12.7 4.2 -1.4 -0.9 -11.3 2.5 -12.3 4.2 -0.5 0.8 -1.6 1.1 -2.8 0.8 -1.3 -0.4 -2.5 -0.1 -3.2 0.8 -1.4 1.9 -7.9 3.7 -10.5 3 -1.2 -0.3 -2.2 0.2 -2.5 1.1 -0.7 1.8 -1.2 1.9 -4.4 0.6z m87.2 -64.8 c1.5 -11.2 2.5 -20.6 2.2 -20.8 -0.2 -0.3 -8.3 -0.3 -18 -0.2 l-17.7 0.3 6.3 9.8 c3.4 5.4 10 16 14.7 23.6 10 16.3 8.6 17.7 12.5 -12.7z"/>
  <path d="M349.8 341.8 c-1.6 -0.5 -2.8 -1.4 -2.8 -1.9 0 -0.4 -0.7 -0.6 -1.5 -0.3 -0.8 0.4 -1.5 0.1 -1.5 -0.5 0 -0.6 -0.7 -0.8 -1.5 -0.5 -0.8 0.4 -1.5 0.1 -1.5 -0.6 0 -0.6 -0.5 -0.8 -1 -0.5 -1.3 0.8 -15 -3.5 -15 -4.7 0 -0.5 -0.4 -0.6 -1 -0.3 -0.5 0.3 -1 0.2 -1 -0.4 0 -0.6 -0.7 -0.8 -1.5 -0.5 -1.8 0.7 -14.5 -3.4 -14.5 -4.7 0 -0.6 -0.5 -0.7 -1 -0.4 -1.3 0.8 -14 -3.3 -14 -4.5 0 -0.4 -0.8 -0.6 -1.9 -0.3 -1 0.2 -2.5 -0.3 -3.4 -1.2 -0.9 -0.9 -2.1 -1.4 -2.7 -1 -1.3 0.8 -9.1 -1.6 -9.7 -3.1 -0.2 -0.6 -1.3 -1 -2.4 -0.7 -1.1 0.3 -1.9 0 -1.9 -0.6 0 -0.7 -0.4 -0.9 -1 -0.6 -0.5 0.3 -1 0.2 -1 -0.3 0 -0.6 -10 -8.8 -22.2 -18.2 -12.3 -9.5 -22.5 -17.5 -22.8 -17.7 -0.7 -0.7 1.6 -3.7 3.6 -4.8 2.3 -1.2 25 -15.5 31.2 -19.7 l4.4 -2.9 22.6 0.5 c12.5 0.2 28.1 0.9 34.7 1.4 16.5 1.4 24.3 2 36 2.7 5.5 0.4 12.4 1.1 15.3 1.7 5.1 0.9 5.3 1.1 4.8 3.6 -3.3 14.2 -21.2 80 -22 80.8 -0.8 0.8 -1.9 0.9 -3.8 0.2z m-63.9 -62.6 c7.8 -12.3 14.1 -22.5 14.1 -22.7 0 -0.3 -7.6 -0.5 -17 -0.5 -15.5 0 -17 0.2 -17 1.8 -0.1 5 4.5 45 5.1 44.4 0.4 -0.4 7.1 -10.7 14.8 -23z"/>
  <path d="M218 279 c0 -2.8 0.2 -2.9 2 -1.8 1.1 0.7 2 2.1 2 3 0 1.1 -0.8 1.8 -2 1.8 -1.6 0 -2 -0.7 -2 -3z"/>
  <path d="M170 266.8 c0 -0.2 -2.3 -8.2 -5.1 -17.8 -2.8 -9.6 -5.1 -18 -5.1 -18.6 -0.1 -0.6 -1 -0.9 -2.1 -0.6 -1.7 0.4 -1.9 0.2 -1.3 -1.9 0.4 -1.3 1 -3.7 1.3 -5.4 0.2 -1.6 1.6 -9.5 3 -17.3 1.4 -8 2.1 -14.7 1.7 -15.2 -0.5 -0.4 -16.4 -1.1 -35.4 -1.5 l-34.5 -0.7 13.5 13.6 c7.4 7.5 14 13.6 14.7 13.6 0.7 0 1.3 1.1 1.3 2.5 0 1.8 -0.5 2.5 -2 2.5 -1.9 0 -2 0.7 -2 14.5 0 8 -0.4 14.5 -0.8 14.5 -0.4 0 -7.6 -13.2 -16 -29.2 -8.4 -16.1 -16 -30.5 -16.9 -32 -1.7 -2.7 -1.6 -2.8 1.5 -7 1.8 -2.4 4.8 -6.6 6.6 -9.4 1.9 -2.8 5 -7.2 7 -9.8 4.3 -5.6 4.4 -6.5 1.1 -5.8 -4 0.7 -3.4 -3.1 0.7 -4.3 2.9 -0.9 54.6 -44.1 54.7 -45.8 0.1 -0.4 -0.7 -1.1 -1.6 -1.4 -1 -0.4 -2.2 -1.2 -2.6 -2 -0.4 -0.7 -1.4 -1.3 -2.1 -1.3 -0.8 0 -1.6 -0.7 -2 -1.5 -0.3 -0.8 -1.2 -1.5 -2 -1.5 -0.7 0 -1.6 -0.7 -2 -1.5 -0.3 -0.8 -1.2 -1.5 -2.1 -1.5 -0.8 0 -1.5 -0.4 -1.5 -1 0 -0.5 -0.6 -1 -1.3 -1 -0.7 0 -2 -0.8 -2.8 -1.7 -0.9 -1 -2.6 -2.5 -3.8 -3.3 -1.3 -0.8 -3.1 -2.2 -4.2 -3 -1 -0.8 -4.3 -3.3 -7.4 -5.4 -3 -2.2 -5.5 -4.3 -5.5 -4.8 0 -0.4 -0.7 -0.8 -1.5 -0.8 -0.9 0 -1.8 -0.7 -2.1 -1.5 -0.4 -0.8 -1.2 -1.5 -2 -1.5 -0.7 0 -1.8 -0.9 -2.4 -2 -0.6 -1.1 -1.7 -2 -2.5 -2 -0.8 0 -1.5 -0.4 -1.5 -1 0 -0.5 -0.7 -1 -1.5 -1 -0.8 0 -1.9 -0.9 -2.5 -2 -0.6 -1.1 -1.7 -2 -2.5 -2 -0.8 0 -1.5 -0.4 -1.5 -1 0 -0.5 -0.6 -1 -1.3 -1 -0.7 0 -2 -0.8 -2.9 -1.7 -2.2 -2.3 -4.6 -4.3 -5.2 -4.3 -1 0 -15.6 -11.4 -15.6 -12.2 0 -0.4 -0.7 -0.8 -1.5 -0.8 -0.9 0 -1.8 -0.7 -2.1 -1.5 -0.4 -0.8 -1.3 -1.5 -2 -1.5 -0.8 0 -1.7 -0.7 -2 -1.5 -0.4 -0.8 -1.3 -1.5 -2 -1.5 -0.8 0 -1.7 -0.7 -2 -1.5 -0.4 -0.8 -1.1 -1.5 -1.8 -1.5 -0.6 0 -1.9 -0.8 -2.8 -1.7 -2.4 -2.5 -4 -3.8 -6.1 -4.6 -0.9 -0.3 -1.7 -1.1 -1.7 -1.7 0 -0.5 -0.7 -1 -1.5 -1 -0.9 0 -1.8 -0.7 -2.1 -1.5 -0.4 -0.8 -1.3 -1.5 -2 -1.5 -0.8 0 -1.7 -0.7 -2 -1.5 -0.4 -0.8 -1.1 -1.5 -1.6 -1.5 -0.5 0 -3.2 -1.7 -5.9 -3.7 -4 -3.1 -4.8 -4.4 -4.9 -7 0 -3.6 0.2 -3.8 2.8 -2.4 0.9 0.6 8.7 3.9 17.2 7.5 32 13.4 56.6 23.7 58.5 24.6 1.1 0.5 8.5 3.7 16.5 7 17.7 7.5 18.5 8 20 12.7 0.7 2.1 2.7 7.2 4.6 11.3 1.8 4.1 4.9 11.8 7 17 2 5.2 4.7 11.8 6 14.5 1.2 2.8 2.5 6.1 2.8 7.5 0.5 2.6 0.7 4.1 3.1 39 2.8 39.9 3.6 50.5 4.5 58.5 0.5 4.4 1.1 15.2 1.5 24 0.3 8.8 0.8 21.5 1.1 28.3 0.4 8.3 0.2 12.2 -0.5 12.2 -0.6 0 -1.1 -0.1 -1.1 -0.2z"/>
  <path d="M212.6 254.8 c-1.3 -24.7 -1.6 -45.4 -0.6 -60.3 0.6 -8.8 1.3 -21.8 1.6 -29 0.3 -7.1 0.9 -20 1.4 -28.5 0.6 -8.5 1 -19 1 -23.2 0 -4.3 0.4 -7.8 0.9 -7.8 0.6 0 0.9 -0.8 0.9 -1.7 -0.1 -1.6 2.2 -8.5 9.7 -28.8 6.7 -18.2 9.9 -25.5 11.2 -25.5 0.7 0 2.1 -0.4 3.1 -0.9 1.9 -1 6.7 -3 9.7 -4.1 1.1 -0.4 3.4 -1.3 5 -2 3.3 -1.4 6.8 -2.8 10.3 -4.1 4.3 -1.7 7.7 -3.1 9.4 -4 1 -0.5 2.2 -0.9 2.8 -0.9 0.5 0 3.3 -1.1 6.2 -2.4 2.9 -1.3 10 -4.3 15.8 -6.6 5.8 -2.3 12.1 -4.8 14 -5.7 1.9 -0.8 4.4 -1.8 5.5 -2.3 1.1 -0.4 3.2 -1.2 4.8 -1.9 3.5 -1.4 7.1 -2.9 10 -4 3 -1.1 6.7 -2.6 9.7 -3.9 5.5 -2.3 6 -2.3 6 0.3 0 1.3 -0.7 3 -1.5 3.9 -0.8 0.8 -1.5 1.9 -1.5 2.5 0 0.6 -0.9 1.1 -2 1.1 -1.1 0 -2 0.6 -2 1.4 0 0.8 -1.5 2.4 -3.3 3.5 -1.8 1.1 -4.6 3.1 -6.2 4.5 -1.7 1.4 -4 2.6 -5.3 2.6 -1.3 0 -3.4 1.1 -4.8 2.5 -1.4 1.4 -2.9 2.5 -3.4 2.5 -0.6 0 -1 0.7 -1 1.5 0 0.8 -0.7 1.5 -1.5 1.5 -0.8 0 -1.5 0.7 -1.5 1.6 0 0.9 -0.9 1.8 -2 2.1 -1.1 0.3 -2 0.9 -2 1.4 0 0.5 -0.9 0.9 -2 0.9 -1.2 0 -2 0.7 -2 1.6 0 0.9 -0.9 1.8 -2 2.1 -1.1 0.3 -2 0.9 -2 1.4 0 0.5 -1.1 0.9 -2.5 0.9 -1.8 0 -2.5 0.5 -2.5 2 0 1.1 -0.7 2 -1.5 2 -0.8 0 -1.5 0.5 -1.5 1 0 0.6 -0.9 1 -2 1 -1.1 0 -2 0.7 -2 1.5 0 0.8 -0.7 1.5 -1.5 1.5 -0.8 0 -1.5 0.5 -1.5 1 0 0.6 -0.9 1 -2 1 -1.1 0 -2 0.7 -2 1.5 0 0.8 -0.6 1.5 -1.4 1.5 -0.8 0 -1.6 0.7 -2 1.5 -0.3 0.8 -1.5 1.5 -2.6 1.5 -1.1 0 -2 0.7 -2 1.5 0 0.9 -0.9 1.5 -2.5 1.5 -1.6 0 -2.5 0.6 -2.5 1.5 0 0.9 -0.9 1.5 -2.1 1.5 -1.2 0 -2.3 0.8 -2.6 2 -0.3 1.1 -1.2 2 -1.9 2 -0.8 0 -1.4 0.7 -1.4 1.5 0 0.8 -0.7 1.5 -1.5 1.5 -0.8 0 -1.5 0.5 -1.5 1 0 0.6 -0.9 1 -2 1 -1.1 0 -2 0.7 -2 1.5 0 0.9 -0.9 1.5 -2.5 1.5 -1.6 0 -2.5 0.6 -2.5 1.5 0 0.8 -0.9 1.5 -2 1.5 -1.1 0 -2.3 0.7 -2.6 1.5 -0.4 0.8 -1.3 1.5 -2 1.5 -0.8 0 -1.7 0.7 -2 1.5 -0.4 0.8 -1.3 1.5 -2 1.5 -0.8 0 -1.7 0.6 -2 1.4 -0.3 0.8 -1.6 1.7 -3 2 -1.6 0.4 -2.4 1.4 -2.4 2.7 0 1.2 -0.8 2.3 -2 2.6 -1.1 0.3 -2 0.9 -2 1.4 0 0.5 -0.9 0.9 -2 0.9 -1.1 0 -2 0.7 -2 1.5 0 0.8 -0.9 1.5 -2 1.5 -2 0 -2 0.1 -0.4 2.5 0.9 1.4 2.2 2.5 3 2.5 0.7 0 2.6 1.6 4.1 3.5 1.5 1.9 3.3 3.5 3.9 3.5 0.7 0 2.6 1.6 4.3 3.5 1.7 1.9 3.5 3.5 4 3.5 0.5 0 2.3 1.6 4 3.5 1.7 1.9 3.5 3.5 4 3.5 0.5 0 2.3 1.6 4 3.5 1.7 1.9 3.5 3.5 4 3.5 0.5 0 2.5 1.8 4.4 4 1.9 2.2 3.8 4 4.3 4 1.3 0 9.4 7.7 9.4 9 0 0.7 -0.8 0.9 -2 0.5 -1.1 -0.3 -2 -0.2 -2 0.3 0 0.6 4.9 7.3 11 15 l10.9 13.9 -7.5 14.9 c-21.5 42.3 -24.7 48.4 -25.5 49 -0.5 0.3 -0.9 -5.8 -0.9 -14.5 0 -13 -0.2 -15 -1.5 -14.5 -1.1 0.4 -1.5 -0.1 -1.5 -1.7 0 -1.7 3.9 -6.4 13.8 -16.3 l13.7 -13.8 -15.4 0.6 c-8.5 0.3 -23.6 0.6 -33.5 0.6 -10 0 -18.7 0.4 -19.3 0.8 -1 0.6 -0.6 4.6 1.8 17.2 1.7 9.1 3.5 16.7 4 16.8 1.6 0.6 1 6.2 -0.6 6.2 -2.1 0 -2.9 2.5 -5.4 17 -1.2 6.9 -2.4 13.7 -2.7 15.3 -1.1 5.5 -2.2 2.5 -2.8 -7.5z"/>
  <path d="M339.8 173.9 c-3 -1.7 -2 -2.9 2.2 -2.9 3.3 0 4 0.3 4 2 0 2.2 -3.2 2.7 -6.2 0.9z"/>
  <path d="M329.4 171.1 c-9.2 -2.2 -6.1 -5.4 3.5 -3.5 2.1 0.5 3.1 1.2 3.1 2.5 0 2 -1.3 2.2 -6.6 1z"/>
  <path d="M311.5 166 c-1.1 -0.4 -3.9 -1.4 -6.2 -2.1 -6.2 -1.8 -5.9 -4.3 0.4 -3.6 2.6 0.3 4.9 1 5.1 1.6 0.2 0.6 1.9 1.1 3.8 1.1 2.7 0 3.4 0.4 3.4 2 0 2.2 -2.7 2.6 -6.5 1z"/>
 </g>
 <g fill="#d26c17">
  <path d="M102.3 303.3 c-8.7 -14.2 -20.8 -33.7 -25.8 -41.7 -2.4 -3.8 -4.2 -7.3 -3.9 -7.8 0.3 -0.4 10.7 -0.8 23 -0.8 l22.6 0 -0.6 3.8 c-0.3 2 -1.7 12.5 -3.1 23.2 -3.4 26.3 -4.5 33 -5.5 33 -0.4 0 -3.5 -4.4 -6.7 -9.7z"/>
  <path d="M268 311.1 c0 -0.6 -1.1 -11.3 -2.4 -23.8 -1.4 -12.5 -2.6 -25.5 -2.8 -28.8 l-0.3 -6 3.3 0.1 c1.7 0 11.5 0.1 21.7 0.2 14.1 0.2 18.5 0.5 18.4 1.5 0 1.8 -35.2 57 -36.7 57.5 -0.6 0.2 -1.2 -0.1 -1.2 -0.7z"/>
  <path d="M154.6 228.7 c-1.1 -0.8 -1.6 -1.9 -1.2 -2.5 0.3 -0.6 -1 -4.4 -3.1 -8.5 -3.5 -7.2 -3.8 -7.5 -6.2 -6.5 -6.2 2.3 -16.9 7.8 -17.3 8.9 -0.4 1.3 -7.8 0.2 -7.8 -1.2 0 -0.5 -0.6 -0.9 -1.3 -0.9 -1.4 0 -32.7 -31.1 -32.7 -32.5 0 -1 79.2 0.4 80.6 1.6 0.6 0.5 0.8 2.8 0.4 6.1 -1.2 9.5 -5.2 33.3 -6 34.8 -1 2.1 -3.2 2.3 -5.4 0.7z"/>
  <path d="M222 228.6 c0 -0.8 -0.4 -1.6 -0.9 -1.8 -1 -0.3 -7.1 -31.7 -7.1 -36.6 0 -2.1 0.6 -3.2 1.8 -3.6 0.9 -0.2 18.7 -0.8 39.5 -1.1 31.5 -0.6 37.7 -0.5 37.7 0.7 0 1.9 -32.2 33.8 -34.2 33.8 -0.9 0 -6.5 -2.3 -12.4 -5.1 -6 -2.7 -11 -4.6 -11.2 -4 -1.1 3.4 -8.6 17.7 -9.5 18.3 -1.9 1.2 -3.7 0.9 -3.7 -0.6z"/>
  <path d="M269.7 152 c-1.9 -1.6 -3.9 -3 -4.5 -3 -0.5 0 -1.7 -1.2 -2.7 -2.6 l-1.6 -2.5 3.8 0.3 c3.1 0.2 3.9 0.7 4.1 2.6 0.3 1.6 1 2.2 2.8 2.2 2 0 2.4 0.5 2.4 3 0 1.7 -0.2 3 -0.5 3 -0.2 0 -2 -1.3 -3.8 -3z"/>
  <path d="M257.4 141.7 c-1.2 -0.6 -2.7 -1.9 -3.3 -2.9 -1 -1.6 -0.7 -1.8 2.4 -1.8 3.2 0 3.5 0.2 3.5 3 0 1.7 -0.1 2.9 -0.2 2.9 -0.2 -0.1 -1.3 -0.6 -2.4 -1.2z"/>
  <path d="M127 133.1 c0 -2.9 0.3 -3.1 3.6 -3.1 3.9 0 3.8 0.9 -0.6 4 l-3 2.1 0 -3z"/>
  <path d="M249.6 134.6 c-1.1 -0.6 -3.3 -2.6 -4.9 -4.3 -1.6 -1.8 -3.4 -3.3 -4.1 -3.3 -0.6 0 -1.7 -0.9 -2.4 -2 -1.1 -1.9 -1 -2 2.3 -2 3.1 0 3.5 0.3 3.5 2.5 0 2.1 0.5 2.5 2.9 2.5 3.5 0 5.4 2 4.9 5.3 -0.3 2.1 -0.6 2.3 -2.2 1.3z"/>
  <path d="M233.4 120.5 c-1.2 -0.6 -3.4 -2.5 -4.9 -4.3 -1.5 -1.8 -3.2 -3.2 -3.8 -3.2 -0.7 0 -2.5 -1.6 -4.1 -3.6 -2.5 -3.1 -2.7 -3.9 -1.7 -6.1 0.8 -1.8 1.7 -2.4 3.2 -2 1.4 0.4 1.9 0.1 1.7 -1.1 -0.2 -1.2 0.4 -1.7 2 -1.6 1.6 0 2.1 -0.4 1.8 -1.3 -0.4 -1 0.1 -1.3 1.7 -1.1 1.6 0.2 2.2 -0.2 2.2 -1.6 0 -1.2 1.1 -2.4 2.8 -3.1 1.5 -0.6 2.5 -1.4 2.1 -1.8 -0.3 -0.3 0.5 -0.9 2 -1.3 1.4 -0.3 2.3 -1 2.1 -1.5 -0.3 -0.5 0.6 -1.1 2 -1.5 1.3 -0.3 2.2 -1 1.9 -1.5 -0.3 -0.5 0.8 -1.2 2.5 -1.5 1.7 -0.4 2.9 -1 2.6 -1.4 -0.8 -1.3 2.3 -3.3 4 -2.6 1.1 0.4 1.5 0 1.3 -1.2 -0.2 -1.2 0.3 -1.7 2 -1.6 1.6 0 2.1 -0.4 1.7 -1.4 -0.4 -1.1 0 -1.3 1.6 -0.9 1.5 0.4 1.9 0.2 1.5 -0.9 -0.3 -0.9 0.1 -1.4 1.3 -1.4 1 0 2.1 -0.9 2.4 -2 0.3 -1.2 1.4 -2 2.7 -2 1.1 0 1.9 -0.4 1.6 -0.9 -0.9 -1.3 2.2 -3.4 3.9 -2.7 1.1 0.4 1.5 0 1.3 -1.2 -0.2 -1.2 0.4 -1.7 2.2 -1.7 1.8 -0.1 2.5 -0.6 2.3 -1.9 -0.1 -1.3 0.4 -1.6 1.8 -1.3 1.4 0.4 1.9 0.1 1.7 -1.1 -0.2 -1.2 0.4 -1.7 2 -1.6 1.6 0 2.1 -0.4 1.7 -1.4 -0.4 -1.1 0 -1.3 1.6 -0.9 1.5 0.4 1.9 0.2 1.5 -0.9 -0.4 -1 0.2 -1.4 2 -1.4 2 0 2.5 -0.4 2 -1.6 -0.5 -1.3 -0.2 -1.5 1.4 -1.1 1.1 0.3 2 0.1 2 -0.4 0 -0.5 -0.6 -0.9 -1.2 -0.9 -0.7 0 -0.2 -0.7 1 -1.6 1.3 -0.9 3 -1.3 3.9 -1 1.1 0.5 1.4 0.2 0.9 -1 -0.4 -1.1 0 -1.4 1.7 -1.2 1.6 0.2 2.2 -0.2 2.2 -1.7 0 -1.4 0.7 -2 2.3 -1.9 1.6 0 2.1 -0.4 1.8 -1.3 -0.4 -1 0.1 -1.3 1.7 -1.1 1.6 0.2 2.2 -0.2 2.1 -1.4 -0.1 -1.2 0.5 -1.8 1.8 -1.8 1 0 1.6 -0.5 1.3 -1 -0.3 -0.6 0.1 -1.3 1 -1.7 1 -0.3 2.8 -1.7 4.1 -2.9 1.2 -1.3 3.3 -2.4 4.6 -2.4 1.3 0 3.2 -0.7 4.3 -1.6 1.7 -1.3 1.8 -1.6 0.5 -2.5 -1.2 -0.8 -1.1 -0.9 0.5 -0.7 1.1 0.1 2.6 -0.1 3.3 -0.5 0.8 -0.6 1.2 0 1.2 2.2 0 2.8 -0.3 3.1 -3 3.1 -2.3 0 -3 0.4 -3 2 0 2 -6.9 7.8 -12.2 10.2 -1.6 0.7 -2.8 1.7 -2.8 2.3 0 1 -2.6 2.7 -6.2 4.1 -1 0.3 -1.8 1.3 -1.8 2 0 0.8 -0.4 1.4 -1 1.4 -0.5 0 -1.9 0.8 -2.9 1.7 -3.7 3.3 -5 4.3 -6.1 4.3 -0.5 0 -1.8 0.8 -2.8 1.7 -1 1 -3.1 2.7 -4.6 3.8 -1.6 1.1 -3.4 2.6 -4.1 3.3 -0.8 0.6 -2.1 1.2 -2.9 1.2 -0.9 0 -1.6 0.7 -1.6 1.5 0 0.8 -0.4 1.5 -0.9 1.5 -0.4 0 -3.1 1.8 -5.9 4 -2.7 2.2 -5.4 4 -6 4 -0.6 0 -1.2 0.4 -1.4 0.9 -0.4 1.1 -29.4 23 -31.5 23.8 -0.8 0.3 -2.8 1.8 -4.3 3.2 -1.5 1.4 -4 3.5 -5.5 4.6 l-2.8 2 2.4 0.5 c1.8 0.4 2.5 1.4 2.7 3.8 0.3 2.9 0.6 3.2 3.8 3.2 3.6 0 4.8 1.4 4.2 4.7 -0.2 1.6 -0.7 1.7 -2.4 0.8z"/>
  <path d="M157.4 107.7 c-1.3 -1.4 -5.2 -4.5 -8.5 -6.7 -1.2 -0.8 -3.5 -2.7 -5.1 -4.2 -1.6 -1.6 -3.3 -2.8 -3.8 -2.8 -0.6 0 -1 -0.7 -1 -1.5 0 -0.8 -0.9 -1.5 -2 -1.5 -1.1 0 -2 -0.7 -2 -1.5 0 -0.8 -0.7 -1.5 -1.6 -1.5 -0.8 0 -2.1 -0.6 -2.8 -1.2 -0.8 -0.7 -2.3 -2 -3.5 -2.8 -1.1 -0.8 -2.1 -2.5 -2.1 -3.8 0 -2.1 0.2 -2.2 1.5 -1.2 0.8 0.7 1.5 0.9 1.5 0.5 0 -0.5 0.9 0.2 2 1.5 1.1 1.3 2 2 2 1.6 0 -0.4 1.2 0.5 2.8 1.9 1.5 1.4 3.4 3.2 4.3 4 0.9 0.8 2.1 1.5 2.7 1.5 0.7 0 1.2 0.5 1.2 1 0 0.6 0.7 1 1.5 1 0.9 0 1.8 0.7 2.1 1.5 0.4 0.8 1 1.3 1.4 1 0.5 -0.3 1.6 0.5 2.4 1.7 0.9 1.2 1.6 1.8 1.6 1.3 0.1 -0.6 0.9 0 1.9 1.2 1 1.2 2.1 2 2.3 1.8 0.3 -0.3 1.7 0.9 3.2 2.6 2.2 2.4 2.5 3.3 1.5 4.5 -1.4 1.7 -2 1.7 -3.5 0.1z"/>
  <path d="M113 73.5 c0 -0.8 -0.7 -1.5 -1.5 -1.5 -0.9 0 -1.8 -0.7 -2.1 -1.5 -0.4 -0.8 -1.3 -1.5 -2 -1.5 -0.8 0 -1.7 -0.7 -2 -1.5 -0.4 -0.8 -1.3 -1.5 -2 -1.5 -0.8 0 -1.7 -0.7 -2 -1.5 -0.4 -0.8 -1.2 -1.5 -1.9 -1.5 -1.6 0 -5.5 -3.4 -5.5 -4.9 0 -0.6 -0.9 -1.1 -2 -1.1 -1.1 0 -2 -0.7 -2 -1.5 0 -0.8 -0.9 -1.5 -2 -1.5 -1.3 0 -2 -0.7 -2 -2 0 -1.6 -0.7 -2 -3 -2 -2.7 0 -3 -0.3 -3 -3.1 0 -2.7 0.2 -3 1.5 -1.9 0.8 0.7 1.5 0.9 1.5 0.5 0 -0.4 0.9 0.4 2.1 1.9 1.1 1.4 2.5 2.6 3 2.6 1.1 0 3.1 1.5 5.7 4.3 0.9 0.9 2.2 1.7 2.9 1.7 0.7 0 1.3 0.5 1.3 1.1 0 0.5 0.4 0.8 1 0.4 0.5 -0.3 1.7 0.6 2.6 2 0.9 1.3 2 2.2 2.5 1.9 0.5 -0.3 1.2 0.2 1.5 1 0.3 0.9 1.2 1.6 2 1.6 0.7 0 1.8 0.9 2.4 2 0.6 1.1 1.5 1.8 2 1.5 0.5 -0.3 1.4 0.4 2 1.5 0.6 1.1 1.4 1.9 1.8 1.7 0.4 -0.1 1.7 0.8 3 2.1 l2.2 2.2 -4 0 c-2.9 0 -4 -0.4 -4 -1.5z"/>
  <path d="M72 42 c0 -0.5 -0.9 -1 -2 -1 -1.1 0 -2 -0.7 -2 -1.5 0 -0.8 -0.9 -1.5 -2 -1.5 -1.1 0 -2 -0.7 -2 -1.5 0 -0.8 -0.9 -1.5 -2 -1.5 -1.1 0 -2 -0.7 -2 -1.5 0 -0.8 -0.7 -1.5 -1.5 -1.5 -0.9 0 -1.8 -0.7 -2.1 -1.5 -0.4 -0.8 -1.4 -1.5 -2.3 -1.5 -0.9 0 -2.8 -1.3 -4.1 -3 -1.4 -1.6 -3.1 -2.9 -3.7 -3 -0.7 0 -1.3 -0.7 -1.3 -1.5 0 -0.8 -0.9 -1.5 -2 -1.5 -1.1 0 -2 -0.7 -2 -1.5 0 -0.8 -0.9 -1.5 -2 -1.5 -1.5 0 -2 -0.7 -2 -2.5 0 -1.9 0.4 -2.3 1.8 -1.8 0.9 0.4 2.1 1.2 2.5 2 0.4 0.7 1.4 1.3 2.1 1.3 0.8 0 1.6 0.7 2 1.5 0.3 0.8 1.2 1.5 2 1.5 0.7 0 1.7 0.7 2 1.6 0.3 0.8 1 1.2 1.6 0.9 0.6 -0.3 1.3 0.1 1.6 0.9 0.3 0.9 0.9 1.4 1.3 1.2 0.4 -0.3 1.5 0.6 2.5 1.9 1 1.4 2.2 2.2 2.7 2 0.4 -0.3 1.3 0.4 1.9 1.5 0.6 1.1 1.5 1.8 2 1.5 0.5 -0.3 1.4 0.4 2 1.5 0.6 1.1 1.5 1.8 2 1.5 0.5 -0.3 1.4 0.4 2 1.5 0.6 1.1 1.5 1.8 2 1.5 0.5 -0.3 1.4 0.4 2 1.5 0.6 1.1 1.4 1.8 1.9 1.6 0.4 -0.3 1.2 0.4 1.9 1.5 1.1 1.7 0.9 1.9 -1.8 1.9 -1.6 0 -3 -0.4 -3 -1z"/>
  <path d="M339.5 15.7 c1 -0.8 1.5 -1.9 1.1 -2.5 -0.5 -0.8 0.2 -1.2 1.9 -1.2 2 0 2.6 -0.4 2.1 -1.5 -0.3 -1 0.1 -1.5 1.1 -1.5 0.9 0 1.3 -0.3 1 -0.7 -1 -1 5 -4.3 7.8 -4.3 1.7 0 2.5 0.6 2.5 1.7 0 2.1 -6.9 8.3 -9.2 8.3 -1 0 -1.8 0.7 -1.8 1.5 0 1.1 -1.1 1.5 -4.2 1.5 -3.8 0 -4 -0.1 -2.3 -1.3z"/>
  <path d="M27 9.2 c0 -0.5 -1.1 -1.5 -2.5 -2.2 -1.4 -0.7 -2.5 -2.2 -2.5 -3.2 0 -2.7 6 -2.5 6.7 0.2 0.3 1.1 0.8 1.8 1.2 1.6 0.3 -0.2 1.4 0.7 2.4 2 l1.8 2.4 -3.6 0 c-1.9 0 -3.5 -0.4 -3.5 -0.8z"/>
 </g>
 <g fill="#804618">
  <path d="M21.3 165.6 l-8.3 -10 3 -1.9 c1.7 -1 3 -2.7 3 -3.7 0 -1 -2.3 -3.8 -5.1 -6.2 l-5.1 -4.4 4.1 -2.8 c2.3 -1.6 4.1 -3.4 4.1 -4.2 0 -0.7 -2.3 -2.9 -5.1 -5 l-5.1 -3.8 3.1 -2.5 c2 -1.7 3.1 -3.5 3.1 -5.1 0 -1.4 -2.3 -15.1 -5 -30.5 l-5.1 -27.9 9.7 -27.6 c5.4 -15.1 9.9 -27.7 10.1 -28 0.7 -0.8 4.4 1.9 47.5 34.4 23.3 17.6 52.4 39.6 64.8 48.9 12.4 9.3 23.5 17.9 24.8 19.1 l2.2 2.2 -26.7 22.9 c-14.7 12.6 -27.9 23.4 -29.3 24.1 -2.5 1.3 -28.5 9.1 -32.7 9.9 -1.2 0.2 -2.6 0.6 -3.1 0.9 -0.5 0.3 -1.9 0.7 -3.3 1 -1.3 0.3 -9.4 2.5 -17.9 4.9 -8.5 2.5 -16.4 4.7 -17.5 4.9 -1.6 0.3 -3.8 -1.8 -10.2 -9.6z"/>
  <path d="M309.9 165.1 c-32.3 -9.2 -38 -11.1 -41 -13.8 -12.3 -10.9 -25.4 -22.4 -37.2 -32.7 -7.5 -6.5 -13.5 -12.2 -13.2 -12.6 0.7 -1.2 70.7 -53.5 76.5 -57.2 1.4 -0.8 5.4 -3.8 8.8 -6.4 8.2 -6.5 12.6 -9.8 25.7 -19.4 6.1 -4.5 11.7 -8.6 12.5 -9.3 0.8 -0.7 2.7 -2 4.2 -2.9 1.4 -1 3.9 -2.9 5.4 -4.3 1.5 -1.4 3.4 -2.4 4.3 -2.3 0.9 0.2 4.5 9.4 10.3 26.8 l9 26.5 -5.6 30 c-3.1 16.5 -5.6 30.5 -5.6 31.2 0 0.6 1.6 2.1 3.5 3.3 l3.5 2.2 -5 3.9 c-2.8 2.2 -5 4.6 -5 5.3 0 0.7 1.6 2.4 3.5 3.7 1.9 1.3 3.5 2.7 3.5 3 0 0.4 -2.2 2.7 -5 5.3 -2.7 2.6 -5 5 -5 5.4 0 0.4 1.4 1.9 3.1 3.3 l3.2 2.6 -7.8 9.4 c-4.2 5.2 -8 9.5 -8.4 9.6 -0.3 0.1 -17.5 -4.6 -38.2 -10.6z"/>
 </g>
 <g fill="#171717">
  <path d="M162 308.8 c0 -1.3 0.5 -5.2 1 -8.8 0.5 -3.6 1.2 -9.2 1.5 -12.5 0.9 -8.3 1.1 -8.7 4.8 -11.2 3.2 -2.2 4.2 -2.3 24.8 -2.3 l21.5 0 3.1 2.8 c2.8 2.4 3.3 3.5 3.8 9.2 0.4 3.5 0.8 6.7 1 7 0.9 1.5 1.5 17 0.6 17 -0.5 0 -1.3 -0.4 -1.6 -1 -0.4 -0.6 -11 -1 -28.5 -1 -23.4 0 -28.1 0.2 -29.4 1.5 -2 2.1 -2.6 1.9 -2.6 -0.7z"/>
 </g>
 <g fill="#000000">
  <path d="M138.7 224.7 c-10.3 -2.8 -18.6 -5.6 -18.4 -6.1 0.4 -1.2 1.2 -1.6 12.2 -6.6 5 -2.3 10.3 -4.7 12 -5.5 1.6 -0.7 3.3 -1.1 3.7 -0.9 1.6 1 11.9 22.5 11.3 23.4 -0.8 1.2 1.4 1.7 -20.8 -4.3z"/>
  <path d="M223 228.7 c0 -1.7 9.8 -22.4 10.9 -23.1 1 -0.7 27.3 11.7 27.5 12.8 0 0.5 -1 1.3 -2.4 1.7 -1.4 0.3 -9.2 2.5 -17.5 4.8 -8.2 2.3 -15.8 4.4 -16.7 4.7 -1.2 0.3 -1.8 0 -1.8 -0.9z"/>
 </g>
</svg>